<?xml version="1.0" encoding="UTF-8"?>
<svg version="1.1" xmlns="http://www.w3.org/2000/svg" width="512" height="512">
<path d="M0 0 C4.23256664 3.68153438 8.21981201 7.59488786 12.046875 11.6953125 C15.4225098 10.25075038 17.39047983 8.45071 19.859375 5.7578125 C40.63795533 -15.2910583 68.99695019 -25.71410102 98.234375 -26.6171875 C132.05547497 -25.90560495 159.75351393 -12.82668978 182.953125 11.3203125 C186.83852614 15.48457019 190.08758425 19.82941404 193.046875 24.6953125 C193.68882812 25.68144531 194.33078125 26.66757813 194.9921875 27.68359375 C210.29936977 52.44863579 214.67430779 84.82626776 208.02172852 113.1159668 C200.20838839 142.29679748 181.59993717 162.47321201 160.72167969 183.24755859 C159.11358851 184.85508424 157.50594033 186.46305315 155.8986969 188.07142639 C151.57549737 192.39519491 147.24620159 196.71281059 142.91570568 201.0292697 C138.37575576 205.55663586 133.84154688 210.08974465 129.30670166 214.6222229 C121.70785561 222.2155781 114.10553996 229.80543922 106.50048828 237.39257812 C98.67422428 245.20042768 90.85010575 253.0104171 83.02880859 260.82324219 C82.3032172 261.54804541 82.3032172 261.54804541 81.56296739 262.28749113 C79.13577681 264.71207125 76.70862778 267.13669296 74.28149939 269.56133533 C54.20972577 289.61244298 34.13063752 309.65621377 14.046875 329.6953125 C10.21118094 328.16452393 8.26155583 325.87651052 5.66151428 322.71604919 C4.77644736 321.65219112 3.89124039 320.58844955 3.00591564 319.52480602 C2.53580795 318.9550616 2.06570025 318.38531718 1.58134687 317.79830778 C-13.34886028 299.74746376 -28.97004257 282.31197373 -44.890625 265.1328125 C-45.57689327 264.39118504 -46.26316154 263.64955758 -46.97022581 262.88545656 C-79.46658335 227.85096661 -109.77017381 195.77708333 -159.8261261 193.65785217 C-168.33159798 193.4038207 -176.78202881 193.78971412 -185.265625 194.3828125 C-186.30639954 194.45327231 -186.30639954 194.45327231 -187.36819983 194.52515554 C-205.11145117 195.75051337 -222.50844983 198.21804464 -239.953125 201.6953125 C-239.953125 194.7653125 -239.953125 187.8353125 -239.953125 180.6953125 C-189.463125 180.2003125 -189.463125 180.2003125 -137.953125 179.6953125 C-143.563125 174.0853125 -149.173125 168.4753125 -154.953125 162.6953125 C-175.58771153 138.4066846 -187.01533448 109.56475505 -184.50585938 77.26147461 C-182.03906484 50.91139598 -172.58819539 27.80820521 -153.953125 8.6953125 C-153.14875 7.8496875 -152.344375 7.0040625 -151.515625 6.1328125 C-150.67 5.3284375 -149.824375 4.5240625 -148.953125 3.6953125 C-148.29441406 3.04175781 -147.63570313 2.38820313 -146.95703125 1.71484375 C-107.07367341 -36.33479649 -41.16742429 -34.54505352 0 0 Z M-35.953125 76.6953125 C-36.37907959 77.39688477 -36.80503418 78.09845703 -37.24389648 78.82128906 C-38.54060023 80.95703641 -39.83731342 83.09277802 -41.1340332 85.22851562 C-42.65739726 87.737576 -44.18066024 90.2466977 -45.70385742 92.75585938 C-49.61604522 99.200211 -53.52926432 105.6439309 -57.4453125 112.0859375 C-66.03135035 126.1872698 -66.03135035 126.1872698 -74.53442383 140.33862305 C-75.47545009 141.90181811 -76.43225907 143.45562664 -77.4050293 144.99926758 C-80.07061404 149.27750247 -82.37669873 153.54038011 -84.40605164 158.16104126 C-93.43772088 178.48877151 -93.43772088 178.48877151 -100.90545654 181.47637939 C-111.25101503 184.16493041 -122.4693781 182.99153054 -132.953125 181.6953125 C-132.57438232 182.12593994 -132.19563965 182.55656738 -131.80541992 183.00024414 C-129.26984944 185.91533637 -126.84411463 188.79290495 -124.69140625 192.00390625 C-119.31477681 198.938979 -114.06843616 201.68731631 -105.32543945 203.00146484 C-99.06637347 203.45218971 -93.7275097 203.3524269 -87.953125 200.6953125 C-80.75623665 193.83215874 -76.82889962 184.31013358 -72.72314453 175.40429688 C-70.39966472 170.42489191 -67.50497271 165.85975475 -64.515625 161.2578125 C-63.48811345 159.62234419 -62.46481204 157.98422471 -61.4453125 156.34375 C-60.90487305 155.47459961 -60.36443359 154.60544922 -59.80761719 153.70996094 C-55.86466348 147.3003253 -52.00694026 140.83886435 -48.140625 134.3828125 C-47.73159943 133.69986115 -47.32257385 133.01690979 -46.90115356 132.31326294 C-44.58312834 128.44181632 -42.26723863 124.56909887 -39.953125 120.6953125 C-37.6671407 124.12428895 -36.36826526 127.65548467 -34.9609375 131.49609375 C-34.51389214 132.70153084 -34.51389214 132.70153084 -34.05781555 133.93132019 C-33.06091461 136.6221416 -32.06955134 139.31496967 -31.078125 142.0078125 C-30.37544557 143.90768682 -29.67239385 145.80742348 -28.96899414 147.70703125 C-27.44654497 151.82038183 -25.92636892 155.93456321 -24.40771484 160.04931641 C-21.84173839 166.99999453 -19.26711149 173.94745347 -16.69140625 180.89453125 C-9.42790939 200.48838509 -2.16930942 220.08397637 5.046875 239.6953125 C7.27311437 236.35595345 8.94352595 232.86799478 10.65234375 229.25 C11.00884506 228.49939301 11.36534637 227.74878601 11.73265076 226.97543335 C12.90284343 224.50844511 14.06896893 222.03956522 15.234375 219.5703125 C15.63138611 218.73060913 16.02839722 217.89090576 16.43743896 217.02575684 C22.26156351 204.70192452 28.01263738 192.34572389 33.671875 179.9453125 C33.99892426 179.23163513 34.32597351 178.51795776 34.66293335 177.78265381 C35.57893227 175.78144485 36.48964291 173.77792648 37.3984375 171.7734375 C37.91229004 170.64325195 38.42614258 169.51306641 38.95556641 168.34863281 C40.1736689 165.86519979 40.1736689 165.86519979 40.046875 163.6953125 C64.466875 163.6953125 88.886875 163.6953125 114.046875 163.6953125 C114.046875 157.4253125 114.046875 151.1553125 114.046875 144.6953125 C85.666875 144.6953125 57.286875 144.6953125 28.046875 144.6953125 C22.106875 157.5653125 16.166875 170.4353125 10.046875 183.6953125 C9.056875 185.0153125 8.066875 186.3353125 7.046875 187.6953125 C4.79604244 181.65395572 2.54619361 175.61223311 0.296875 169.5703125 C-0.05138336 168.63491638 -0.39964172 167.69952026 -0.75845337 166.73577881 C-5.2813121 154.58585969 -9.79383003 142.43216127 -14.29296875 130.2734375 C-14.96125198 128.46765732 -14.96125198 128.46765732 -15.64303589 126.62539673 C-17.83385782 120.70497015 -20.0235951 114.78414515 -22.21191406 108.86279297 C-24.12961092 103.67532916 -26.05391235 98.49036336 -27.9833374 93.30725098 C-28.85225164 90.96699571 -29.71346915 88.62407568 -30.57275391 86.28027344 C-31.23476807 84.50185059 -31.23476807 84.50185059 -31.91015625 82.6875 C-32.26698486 81.71925293 -32.62381348 80.75100586 -32.99145508 79.75341797 C-33.77224494 77.52699706 -33.77224494 77.52699706 -35.953125 76.6953125 Z " fill="#45A6D2" transform="translate(270.953125,104.3046875)"/>
</svg>
